NotoSansElbasan-Regular.ufo
<glyph name="periodcentered" format="2">
  <advance width="410"/>
  <unicode hex="00B7"/>
  <outline>
    <contour>
      <point x="205" y="272" type="curve" smooth="yes"/>
      <point x="236" y="272"/>
      <point x="260" y="297"/>
      <point x="260" y="330" type="curve" smooth="yes"/>
      <point x="260" y="362"/>
      <point x="236" y="388"/>
      <point x="205" y="388" type="curve" smooth="yes"/>
      <point x="175" y="388"/>
      <point x="150" y="362"/>
      <point x="150" y="330" type="curve" smooth="yes"/>
      <point x="150" y="297"/>
      <point x="175" y="272"/>
    </contour>
  </outline>
</glyph>
<glyph name="overlinecmb" format="2">
  <unicode hex="0305"/>
  <outline>
    <contour>
      <point x="-208" y="771" type="line"/>
      <point x="208" y="771" type="line"/>
      <point x="208" y="841" type="line"/>
      <point x="-208" y="841" type="line"/>
    </contour>
  </outline>
</glyph>
<glyph name="Epsilon" format="2">
  <advance width="556"/>
  <unicode hex="0395"/>
  <outline>
    <contour>
      <point x="97" y="0" type="line"/>
      <point x="496" y="0" type="line"/>
      <point x="496" y="79" type="line"/>
      <point x="187" y="79" type="line"/>
      <point x="187" y="334" type="line"/>
      <point x="478" y="334" type="line"/>
      <point x="478" y="412" type="line"/>
      <point x="187" y="412" type="line"/>
      <point x="187" y="635" type="line"/>
      <point x="496" y="635" type="line"/>
      <point x="496" y="714" type="line"/>
      <point x="97" y="714" type="line"/>
    </contour>
  </outline>
</glyph>
<glyph name="Zeta" format="2">
  <advance width="572"/>
  <unicode hex="0396"/>
  <outline>
    <contour>
      <point x="38" y="0" type="line"/>
      <point x="533" y="0" type="line"/>
      <point x="533" y="80" type="line"/>
      <point x="147" y="80" type="line"/>
      <point x="523" y="646" type="line"/>
      <point x="523" y="714" type="line"/>
      <point x="50" y="714" type="line"/>
      <point x="50" y="634" type="line"/>
      <point x="414" y="634" type="line"/>
      <point x="38" y="68" type="line"/>
    </contour>
  </outline>
</glyph>
<glyph name="Eta" format="2">
  <advance width="741"/>
  <unicode hex="0397"/>
  <outline>
    <contour>
      <point x="97" y="0" type="line"/>
      <point x="187" y="0" type="line"/>
      <point x="187" y="333" type="line"/>
      <point x="553" y="333" type="line"/>
      <point x="553" y="0" type="line"/>
      <point x="643" y="0" type="line"/>
      <point x="643" y="714" type="line"/>
      <point x="553" y="714" type="line"/>
      <point x="553" y="412" type="line"/>
      <point x="187" y="412" type="line"/>
      <point x="187" y="714" type="line"/>
      <point x="97" y="714" type="line"/>
    </contour>
  </outline>
</glyph>
<glyph name="Kappa" format="2">
  <advance width="619"/>
  <unicode hex="039A"/>
  <outline>
    <contour>
      <point x="97" y="0" type="line"/>
      <point x="187" y="0" type="line"/>
      <point x="187" y="277" type="line"/>
      <point x="260" y="341" type="line"/>
      <point x="513" y="0" type="line"/>
      <point x="619" y="0" type="line"/>
      <point x="325" y="403" type="line"/>
      <point x="608" y="714" type="line"/>
      <point x="503" y="714" type="line"/>
      <point x="310" y="498" type="line" smooth="yes"/>
      <point x="269" y="452"/>
      <point x="227" y="405"/>
      <point x="187" y="362" type="curve"/>
      <point x="187" y="714" type="line"/>
      <point x="97" y="714" type="line"/>
    </contour>
  </outline>
</glyph>
<glyph name="Upsilon" format="2">
  <advance width="566"/>
  <unicode hex="03A5"/>
  <outline>
    <contour>
      <point x="283" y="363" type="line"/>
      <point x="98" y="714" type="line"/>
      <point x="0" y="714" type="line"/>
      <point x="238" y="273" type="line"/>
      <point x="238" y="0" type="line"/>
      <point x="328" y="0" type="line"/>
      <point x="328" y="277" type="line"/>
      <point x="566" y="714" type="line"/>
      <point x="469" y="714" type="line"/>
    </contour>
  </outline>
</glyph>
<glyph name="Chi" format="2">
  <advance width="586"/>
  <unicode hex="03A7"/>
  <outline>
    <contour>
      <point x="582" y="0" type="line"/>
      <point x="344" y="374" type="line"/>
      <point x="565" y="714" type="line"/>
      <point x="470" y="714" type="line"/>
      <point x="294" y="434" type="line"/>
      <point x="119" y="714" type="line"/>
      <point x="19" y="714" type="line"/>
      <point x="241" y="372" type="line"/>
      <point x="4" y="0" type="line"/>
      <point x="99" y="0" type="line"/>
      <point x="291" y="310" type="line"/>
      <point x="480" y="0" type="line"/>
    </contour>
  </outline>
</glyph>
<glyph name="u10500" format="2">
  <advance width="635"/>
  <unicode hex="10500"/>
  <outline>
    <contour>
      <point x="280" y="-10" type="curve" smooth="yes"/>
      <point x="308" y="-10"/>
      <point x="325" y="8"/>
      <point x="325" y="35" type="curve" smooth="yes"/>
      <point x="325" y="55"/>
      <point x="312" y="72"/>
      <point x="294" y="75" type="curve" smooth="yes"/>
      <point x="218" y="88"/>
      <point x="138" y="142"/>
      <point x="133" y="264" type="curve"/>
      <point x="342" y="264" type="line"/>
      <point x="361" y="154"/>
      <point x="446" y="92"/>
      <point x="536" y="92" type="curve" smooth="yes"/>
      <point x="561" y="92"/>
      <point x="575" y="110"/>
      <point x="575" y="133" type="curve" smooth="yes"/>
      <point x="575" y="151"/>
      <point x="563" y="165"/>
      <point x="546" y="168" type="curve" smooth="yes"/>
      <point x="474" y="180"/>
      <point x="405" y="217"/>
      <point x="405" y="310" type="curve" smooth="yes"/>
      <point x="405" y="402"/>
      <point x="464" y="450"/>
      <point x="546" y="463" type="curve" smooth="yes"/>
      <point x="565" y="466"/>
      <point x="575" y="481"/>
      <point x="575" y="496" type="curve" smooth="yes"/>
      <point x="575" y="510"/>
      <point x="565" y="518"/>
      <point x="546" y="518" type="curve" smooth="yes"/>
      <point x="437" y="518"/>
      <point x="347" y="431"/>
      <point x="339" y="324" type="curve"/>
      <point x="135" y="324" type="line"/>
      <point x="145" y="442"/>
      <point x="207" y="497"/>
      <point x="276" y="505" type="curve" smooth="yes"/>
      <point x="290" y="507"/>
      <point x="300" y="518"/>
      <point x="300" y="533" type="curve" smooth="yes"/>
      <point x="300" y="548"/>
      <point x="295" y="560"/>
      <point x="271" y="560" type="curve" smooth="yes"/>
      <point x="181" y="560"/>
      <point x="60" y="453"/>
      <point x="60" y="276" type="curve" smooth="yes"/>
      <point x="60" y="100"/>
      <point x="179" y="-10"/>
    </contour>
  </outline>
</glyph>
<glyph name="u10501" format="2">
  <advance width="593"/>
  <unicode hex="10501"/>
  <outline>
    <contour>
      <point x="261" y="0" type="line"/>
      <point x="520" y="0" type="line" smooth="yes"/>
      <point x="537" y="0"/>
      <point x="548" y="16"/>
      <point x="548" y="34" type="curve" smooth="yes"/>
      <point x="548" y="45"/>
      <point x="542" y="57"/>
      <point x="533" y="68" type="curve" smooth="yes"/>
      <point x="154" y="525" type="line" smooth="yes"/>
      <point x="130" y="554"/>
      <point x="114" y="570"/>
      <point x="88" y="570" type="curve" smooth="yes"/>
      <point x="64" y="570"/>
      <point x="45" y="553"/>
      <point x="45" y="531" type="curve" smooth="yes"/>
      <point x="45" y="515"/>
      <point x="55" y="502"/>
      <point x="67" y="488" type="curve" smooth="yes"/>
      <point x="420" y="60" type="line"/>
      <point x="261" y="60" type="line"/>
    </contour>
    <contour>
      <point x="93" y="0" type="curve" smooth="yes"/>
      <point x="352" y="0" type="line"/>
      <point x="352" y="60" type="line"/>
      <point x="145" y="60" type="line"/>
      <point x="529" y="517" type="line" smooth="yes"/>
      <point x="534" y="523"/>
      <point x="542" y="535"/>
      <point x="542" y="546" type="curve" smooth="yes"/>
      <point x="542" y="559"/>
      <point x="533" y="570"/>
      <point x="516" y="570" type="curve" smooth="yes"/>
      <point x="502" y="570"/>
      <point x="488" y="556"/>
      <point x="473" y="538" type="curve" smooth="yes"/>
      <point x="80" y="68" type="line" smooth="yes"/>
      <point x="71" y="57"/>
      <point x="65" y="45"/>
      <point x="65" y="34" type="curve" smooth="yes"/>
      <point x="65" y="16"/>
      <point x="76" y="0"/>
    </contour>
  </outline>
</glyph>
<glyph name="u10502" format="2">
  <advance width="602"/>
  <unicode hex="10502"/>
  <outline>
    <contour>
      <point x="129" y="0" type="line"/>
      <point x="269" y="0" type="line" smooth="yes"/>
      <point x="483" y="0"/>
      <point x="542" y="97"/>
      <point x="542" y="188" type="curve" smooth="yes"/>
      <point x="542" y="321"/>
      <point x="428" y="399"/>
      <point x="299" y="468" type="curve" smooth="yes"/>
      <point x="125" y="561" type="line" smooth="yes"/>
      <point x="114" y="567"/>
      <point x="105" y="570"/>
      <point x="93" y="570" type="curve" smooth="yes"/>
      <point x="75" y="570"/>
      <point x="60" y="556"/>
      <point x="60" y="540" type="curve" smooth="yes"/>
      <point x="60" y="527"/>
      <point x="66" y="517"/>
      <point x="79" y="510" type="curve" smooth="yes"/>
      <point x="282" y="406" type="line" smooth="yes"/>
      <point x="407" y="342"/>
      <point x="449" y="276"/>
      <point x="449" y="202" type="curve" smooth="yes"/>
      <point x="449" y="113"/>
      <point x="409" y="60"/>
      <point x="273" y="60" type="curve" smooth="yes"/>
      <point x="129" y="60" type="line"/>
    </contour>
    <contour>
      <point x="125" y="-250" type="curve" smooth="yes"/>
      <point x="147" y="-250"/>
      <point x="170" y="-241"/>
      <point x="170" y="-224" type="curve" smooth="yes"/>
      <point x="170" y="367" type="line" smooth="yes"/>
      <point x="170" y="382"/>
      <point x="148" y="390"/>
      <point x="126" y="390" type="curve" smooth="yes"/>
      <point x="103" y="390"/>
      <point x="80" y="382"/>
      <point x="80" y="367" type="curve" smooth="yes"/>
      <point x="80" y="-224" type="line" smooth="yes"/>
      <point x="80" y="-241"/>
      <point x="102" y="-250"/>
    </contour>
  </outline>
</glyph>
<glyph name="u10503" format="2">
  <advance width="688"/>
  <unicode hex="10503"/>
  <outline>
    <contour>
      <point x="442" y="-10" type="curve" smooth="yes"/>
      <point x="546" y="-10"/>
      <point x="608" y="57"/>
      <point x="608" y="180" type="curve" smooth="yes"/>
      <point x="608" y="724" type="line" smooth="yes"/>
      <point x="608" y="741"/>
      <point x="586" y="750"/>
      <point x="563" y="750" type="curve" smooth="yes"/>
      <point x="541" y="750"/>
      <point x="518" y="741"/>
      <point x="518" y="724" type="curve" smooth="yes"/>
      <point x="518" y="141" type="line" smooth="yes"/>
      <point x="518" y="80"/>
      <point x="491" y="52"/>
      <point x="445" y="52" type="curve" smooth="yes"/>
      <point x="398" y="52"/>
      <point x="369" y="79"/>
      <point x="369" y="139" type="curve" smooth="yes"/>
      <point x="369" y="258" type="line" smooth="yes"/>
      <point x="369" y="399"/>
      <point x="291" y="438"/>
      <point x="206" y="438" type="curve" smooth="yes"/>
      <point x="102" y="438"/>
      <point x="45" y="379"/>
      <point x="45" y="256" type="curve" smooth="yes"/>
      <point x="45" y="191" type="line" smooth="yes"/>
      <point x="45" y="173"/>
      <point x="61" y="165"/>
      <point x="78" y="165" type="curve" smooth="yes"/>
      <point x="96" y="165"/>
      <point x="110" y="174"/>
      <point x="110" y="191" type="curve" smooth="yes"/>
      <point x="110" y="275" type="line" smooth="yes"/>
      <point x="110" y="352"/>
      <point x="152" y="376"/>
      <point x="199" y="376" type="curve" smooth="yes"/>
      <point x="244" y="376"/>
      <point x="279" y="341"/>
      <point x="279" y="289" type="curve" smooth="yes"/>
      <point x="279" y="170" type="line" smooth="yes"/>
      <point x="279" y="38"/>
      <point x="357" y="-10"/>
    </contour>
  </outline>
</glyph>
<glyph name="u10504" format="2">
  <advance width="616"/>
  <unicode hex="10504"/>
  <outline>
    <contour>
      <point x="131" y="0" type="curve" smooth="yes"/>
      <point x="485" y="0" type="line" smooth="yes"/>
      <point x="528" y="0"/>
      <point x="536" y="17"/>
      <point x="536" y="51" type="curve" smooth="yes"/>
      <point x="536" y="724" type="line" smooth="yes"/>
      <point x="536" y="741"/>
      <point x="514" y="750"/>
      <point x="491" y="750" type="curve" smooth="yes"/>
      <point x="469" y="750"/>
      <point x="446" y="741"/>
      <point x="446" y="724" type="curve" smooth="yes"/>
      <point x="446" y="60" type="line"/>
      <point x="170" y="60" type="line"/>
      <point x="170" y="364" type="line" smooth="yes"/>
      <point x="170" y="381"/>
      <point x="148" y="390"/>
      <point x="125" y="390" type="curve" smooth="yes"/>
      <point x="103" y="390"/>
      <point x="80" y="381"/>
      <point x="80" y="364" type="curve" smooth="yes"/>
      <point x="80" y="51" type="line" smooth="yes"/>
      <point x="80" y="17"/>
      <point x="88" y="0"/>
    </contour>
  </outline>
</glyph>
<glyph name="u10505" format="2">
  <advance width="616"/>
  <unicode hex="10505"/>
  <outline>
    <contour>
      <point x="131" y="0" type="curve" smooth="yes"/>
      <point x="485" y="0" type="line" smooth="yes"/>
      <point x="528" y="0"/>
      <point x="536" y="17"/>
      <point x="536" y="51" type="curve" smooth="yes"/>
      <point x="536" y="724" type="line" smooth="yes"/>
      <point x="536" y="741"/>
      <point x="514" y="750"/>
      <point x="491" y="750" type="curve" smooth="yes"/>
      <point x="469" y="750"/>
      <point x="446" y="741"/>
      <point x="446" y="724" type="curve" smooth="yes"/>
      <point x="446" y="60" type="line"/>
      <point x="170" y="60" type="line"/>
      <point x="170" y="364" type="line" smooth="yes"/>
      <point x="170" y="381"/>
      <point x="148" y="390"/>
      <point x="125" y="390" type="curve" smooth="yes"/>
      <point x="103" y="390"/>
      <point x="80" y="381"/>
      <point x="80" y="364" type="curve" smooth="yes"/>
      <point x="80" y="51" type="line" smooth="yes"/>
      <point x="80" y="17"/>
      <point x="88" y="0"/>
    </contour>
    <contour>
      <point x="125" y="465" type="curve" smooth="yes"/>
      <point x="154" y="465"/>
      <point x="178" y="488"/>
      <point x="178" y="517" type="curve" smooth="yes"/>
      <point x="178" y="546"/>
      <point x="154" y="570"/>
      <point x="125" y="570" type="curve" smooth="yes"/>
      <point x="96" y="570"/>
      <point x="73" y="546"/>
      <point x="73" y="517" type="curve" smooth="yes"/>
      <point x="73" y="488"/>
      <point x="96" y="465"/>
    </contour>
  </outline>
</glyph>
<glyph name="u10506" format="2">
  <advance width="667"/>
  <unicode hex="10506"/>
  <outline>
    <contour>
      <point x="336" y="-10" type="curve" smooth="yes"/>
      <point x="350" y="-10"/>
      <point x="364" y="-3"/>
      <point x="371" y="10" type="curve" smooth="yes"/>
      <point x="615" y="470" type="line" smooth="yes"/>
      <point x="622" y="482"/>
      <point x="632" y="500"/>
      <point x="632" y="516" type="curve" smooth="yes"/>
      <point x="632" y="539"/>
      <point x="620" y="560"/>
      <point x="586" y="560" type="curve" smooth="yes"/>
      <point x="85" y="560" type="line" smooth="yes"/>
      <point x="54" y="560"/>
      <point x="35" y="539"/>
      <point x="35" y="513" type="curve" smooth="yes"/>
      <point x="35" y="496"/>
      <point x="41" y="482"/>
      <point x="48" y="470" type="curve" smooth="yes"/>
      <point x="301" y="10" type="line" smooth="yes"/>
      <point x="308" y="-3"/>
      <point x="323" y="-10"/>
    </contour>
    <contour>
      <point x="345" y="77" type="line"/>
      <point x="127" y="500" type="line"/>
      <point x="570" y="500" type="line"/>
    </contour>
  </outline>
</glyph>
<glyph name="u10507" format="2">
  <advance width="580"/>
  <unicode hex="10507"/>
  <outline>
    <contour>
      <point x="63" y="0" type="curve" smooth="yes"/>
      <point x="491" y="0" type="line" smooth="yes"/>
      <point x="507" y="0"/>
      <point x="515" y="20"/>
      <point x="515" y="40" type="curve" smooth="yes"/>
      <point x="515" y="60"/>
      <point x="507" y="80"/>
      <point x="491" y="80" type="curve" smooth="yes"/>
      <point x="104" y="80" type="line"/>
      <point x="116" y="59" type="line"/>
      <point x="521" y="480" type="line" smooth="yes"/>
      <point x="540" y="499"/>
      <point x="545" y="515"/>
      <point x="545" y="528" type="curve" smooth="yes"/>
      <point x="545" y="545"/>
      <point x="532" y="560"/>
      <point x="505" y="560" type="curve" smooth="yes"/>
      <point x="73" y="560" type="line" smooth="yes"/>
      <point x="56" y="560"/>
      <point x="45" y="542"/>
      <point x="45" y="520" type="curve" smooth="yes"/>
      <point x="45" y="502"/>
      <point x="53" y="480"/>
      <point x="73" y="480" type="curve" smooth="yes"/>
      <point x="479" y="480" type="line"/>
      <point x="467" y="501" type="line"/>
      <point x="50" y="68" type="line" smooth="yes"/>
      <point x="40" y="58"/>
      <point x="35" y="45"/>
      <point x="35" y="34" type="curve" smooth="yes"/>
      <point x="35" y="16"/>
      <point x="46" y="0"/>
    </contour>
  </outline>
</glyph>
<glyph name="u10508" format="2">
  <advance width="564"/>
  <unicode hex="10508"/>
  <outline>
    <contour>
      <point x="458" y="-250" type="curve" smooth="yes"/>
      <point x="481" y="-250"/>
      <point x="504" y="-242"/>
      <point x="504" y="-227" type="curve" smooth="yes"/>
      <point x="504" y="74" type="line" smooth="yes"/>
      <point x="504" y="101"/>
      <point x="488" y="115"/>
      <point x="459" y="115" type="curve" smooth="yes"/>
      <point x="444" y="115"/>
      <point x="428" y="108"/>
      <point x="408" y="98" type="curve" smooth="yes"/>
      <point x="380" y="84"/>
      <point x="346" y="67"/>
      <point x="302" y="67" type="curve" smooth="yes"/>
      <point x="224" y="67"/>
      <point x="153" y="141"/>
      <point x="153" y="276" type="curve" smooth="yes"/>
      <point x="153" y="441"/>
      <point x="248" y="504"/>
      <point x="332" y="512" type="curve" smooth="yes"/>
      <point x="353" y="514"/>
      <point x="362" y="529"/>
      <point x="362" y="543" type="curve" smooth="yes"/>
      <point x="362" y="558"/>
      <point x="352" y="570"/>
      <point x="332" y="570" type="curve" smooth="yes"/>
      <point x="200" y="570"/>
      <point x="60" y="453"/>
      <point x="60" y="276" type="curve" smooth="yes"/>
      <point x="60" y="100"/>
      <point x="157" y="-5"/>
      <point x="282" y="-5" type="curve" smooth="yes"/>
      <point x="346" y="-5"/>
      <point x="406" y="27"/>
      <point x="433" y="52" type="curve"/>
      <point x="414" y="63" type="line"/>
      <point x="414" y="-227" type="line" smooth="yes"/>
      <point x="414" y="-242"/>
      <point x="436" y="-250"/>
    </contour>
  </outline>
</glyph>
<glyph name="u10509" format="2">
  <advance width="568"/>
  <unicode hex="10509"/>
  <outline>
    <contour>
      <point x="309" y="-9" type="curve" smooth="yes"/>
      <point x="430" y="-9"/>
      <point x="518" y="63"/>
      <point x="518" y="152" type="curve" smooth="yes"/>
      <point x="518" y="241"/>
      <point x="426" y="314"/>
      <point x="315" y="314" type="curve" smooth="yes"/>
      <point x="244" y="314"/>
      <point x="181" y="284"/>
      <point x="145" y="233" type="curve"/>
      <point x="158" y="223" type="line"/>
      <point x="165" y="273"/>
      <point x="170" y="322"/>
      <point x="170" y="402" type="curve" smooth="yes"/>
      <point x="170" y="597" type="line" smooth="yes"/>
      <point x="170" y="612"/>
      <point x="148" y="620"/>
      <point x="126" y="620" type="curve" smooth="yes"/>
      <point x="103" y="620"/>
      <point x="80" y="612"/>
      <point x="80" y="597" type="curve" smooth="yes"/>
      <point x="80" y="182" type="line" smooth="yes"/>
      <point x="80" y="68"/>
      <point x="163" y="-9"/>
    </contour>
    <contour>
      <point x="309" y="52" type="curve" smooth="yes"/>
      <point x="232" y="52"/>
      <point x="169" y="97"/>
      <point x="169" y="152" type="curve" smooth="yes"/>
      <point x="169" y="207"/>
      <point x="232" y="252"/>
      <point x="309" y="252" type="curve" smooth="yes"/>
      <point x="386" y="252"/>
      <point x="449" y="207"/>
      <point x="449" y="152" type="curve" smooth="yes"/>
      <point x="449" y="97"/>
      <point x="386" y="52"/>
    </contour>
  </outline>
</glyph>
<glyph name="u1050A" format="2">
  <advance width="628"/>
  <unicode hex="1050A"/>
  <outline>
    <contour>
      <point x="389" y="-9" type="curve" smooth="yes"/>
      <point x="510" y="-9"/>
      <point x="578" y="65"/>
      <point x="578" y="154" type="curve" smooth="yes"/>
      <point x="578" y="243"/>
      <point x="505" y="314"/>
      <point x="389" y="314" type="curve" smooth="yes"/>
      <point x="328" y="314"/>
      <point x="258" y="280"/>
      <point x="233" y="237" type="curve"/>
      <point x="250" y="250" type="line"/>
      <point x="250" y="356"/>
      <point x="307" y="439"/>
      <point x="379" y="499" type="curve" smooth="yes"/>
      <point x="394" y="512"/>
      <point x="401" y="521"/>
      <point x="401" y="535" type="curve" smooth="yes"/>
      <point x="401" y="550"/>
      <point x="390" y="560"/>
      <point x="371" y="560" type="curve" smooth="yes"/>
      <point x="39" y="560" type="line" smooth="yes"/>
      <point x="27" y="560"/>
      <point x="20" y="546"/>
      <point x="20" y="531" type="curve" smooth="yes"/>
      <point x="20" y="516"/>
      <point x="24" y="500"/>
      <point x="39" y="500" type="curve" smooth="yes"/>
      <point x="317" y="500" type="line"/>
      <point x="310" y="519" type="line"/>
      <point x="236" y="459"/>
      <point x="167" y="359"/>
      <point x="167" y="232" type="curve" smooth="yes"/>
      <point x="167" y="95"/>
      <point x="233" y="-9"/>
    </contour>
    <contour>
      <point x="389" y="52" type="curve" smooth="yes"/>
      <point x="321" y="52"/>
      <point x="267" y="94"/>
      <point x="267" y="152" type="curve" smooth="yes"/>
      <point x="267" y="210"/>
      <point x="317" y="252"/>
      <point x="389" y="252" type="curve" smooth="yes"/>
      <point x="471" y="252"/>
      <point x="509" y="207"/>
      <point x="509" y="152" type="curve" smooth="yes"/>
      <point x="509" y="97"/>
      <point x="466" y="52"/>
    </contour>
  </outline>
</glyph>
<glyph name="u1050B" format="2">
  <advance width="840"/>
  <unicode hex="1050B"/>
  <outline>
    <contour>
      <point x="415" y="-250" type="curve" smooth="yes"/>
      <point x="438" y="-250"/>
      <point x="461" y="-242"/>
      <point x="461" y="-227" type="curve" smooth="yes"/>
      <point x="461" y="-8" type="line"/>
      <point x="603" y="1"/>
      <point x="780" y="65"/>
      <point x="780" y="276" type="curve" smooth="yes"/>
      <point x="780" y="437"/>
      <point x="681" y="500"/>
      <point x="579" y="500" type="curve" smooth="yes"/>
      <point x="460" y="500"/>
      <point x="371" y="422"/>
      <point x="371" y="276" type="curve" smooth="yes"/>
      <point x="371" y="54" type="line"/>
      <point x="210" y="78"/>
      <point x="153" y="197"/>
      <point x="153" y="315" type="curve" smooth="yes"/>
      <point x="153" y="426"/>
      <point x="210" y="503"/>
      <point x="299" y="518" type="curve" smooth="yes"/>
      <point x="318" y="521"/>
      <point x="328" y="533"/>
      <point x="328" y="546" type="curve" smooth="yes"/>
      <point x="328" y="558"/>
      <point x="319" y="570"/>
      <point x="299" y="570" type="curve" smooth="yes"/>
      <point x="177" y="570"/>
      <point x="60" y="463"/>
      <point x="60" y="302" type="curve" smooth="yes"/>
      <point x="60" y="136"/>
      <point x="162" y="9"/>
      <point x="371" y="-8" type="curve"/>
      <point x="371" y="-227" type="line" smooth="yes"/>
      <point x="371" y="-242"/>
      <point x="393" y="-250"/>
    </contour>
    <contour>
      <point x="461" y="51" type="curve"/>
      <point x="461" y="276" type="line" smooth="yes"/>
      <point x="461" y="397"/>
      <point x="501" y="438"/>
      <point x="574" y="438" type="curve" smooth="yes"/>
      <point x="643" y="438"/>
      <point x="687" y="376"/>
      <point x="687" y="282" type="curve" smooth="yes"/>
      <point x="687" y="169"/>
      <point x="632" y="62"/>
    </contour>
  </outline>
</glyph>
<glyph name="u1050C" format="2">
  <advance width="673"/>
  <unicode hex="1050C"/>
  <outline>
    <contour>
      <point x="512" y="-250" type="curve" smooth="yes"/>
      <point x="612" y="-250"/>
      <point x="693" y="-210"/>
      <point x="693" y="-168" type="curve" smooth="yes"/>
      <point x="693" y="-141"/>
      <point x="679" y="-124"/>
      <point x="654" y="-124" type="curve" smooth="yes"/>
      <point x="639" y="-124"/>
      <point x="625" y="-131"/>
      <point x="608" y="-140" type="curve" smooth="yes"/>
      <point x="583" y="-153"/>
      <point x="551" y="-168"/>
      <point x="503" y="-168" type="curve" smooth="yes"/>
      <point x="410" y="-168"/>
      <point x="299" y="-111"/>
      <point x="299" y="34" type="curve" smooth="yes"/>
      <point x="299" y="85"/>
      <point x="310" y="122"/>
      <point x="319" y="144" type="curve" smooth="yes"/>
      <point x="325" y="158"/>
      <point x="329" y="168"/>
      <point x="329" y="178" type="curve" smooth="yes"/>
      <point x="329" y="195"/>
      <point x="317" y="210"/>
      <point x="294" y="214" type="curve" smooth="yes"/>
      <point x="216" y="228"/>
      <point x="133" y="258"/>
      <point x="133" y="361" type="curve" smooth="yes"/>
      <point x="133" y="438"/>
      <point x="185" y="493"/>
      <point x="274" y="508" type="curve" smooth="yes"/>
      <point x="297" y="512"/>
      <point x="310" y="524"/>
      <point x="310" y="542" type="curve" smooth="yes"/>
      <point x="310" y="555"/>
      <point x="301" y="570"/>
      <point x="279" y="570" type="curve" smooth="yes"/>
      <point x="166" y="570"/>
      <point x="60" y="473"/>
      <point x="60" y="356" type="curve" smooth="yes"/>
      <point x="60" y="228"/>
      <point x="152" y="163"/>
      <point x="258" y="148" type="curve"/>
      <point x="254" y="159" type="line"/>
      <point x="238" y="128"/>
      <point x="226" y="79"/>
      <point x="226" y="32" type="curve" smooth="yes"/>
      <point x="226" y="-117"/>
      <point x="325" y="-250"/>
    </contour>
  </outline>
</glyph>
<glyph name="u1050D" format="2">
  <advance width="648"/>
  <unicode hex="1050D"/>
  <outline>
    <contour>
      <point x="126" y="-10" type="curve" smooth="yes"/>
      <point x="149" y="-10"/>
      <point x="164" y="-1"/>
      <point x="176" y="16" type="curve" smooth="yes"/>
      <point x="485" y="458" type="line"/>
      <point x="485" y="11" type="line" smooth="yes"/>
      <point x="485" y="-3"/>
      <point x="506" y="-10"/>
      <point x="527" y="-10" type="curve" smooth="yes"/>
      <point x="548" y="-10"/>
      <point x="568" y="-3"/>
      <point x="568" y="11" type="curve" smooth="yes"/>
      <point x="568" y="516" type="line" smooth="yes"/>
      <point x="568" y="543"/>
      <point x="551" y="560"/>
      <point x="523" y="560" type="curve" smooth="yes"/>
      <point x="500" y="560"/>
      <point x="485" y="553"/>
      <point x="472" y="534" type="curve" smooth="yes"/>
      <point x="163" y="88" type="line"/>
      <point x="163" y="539" type="line" smooth="yes"/>
      <point x="163" y="553"/>
      <point x="142" y="560"/>
      <point x="121" y="560" type="curve" smooth="yes"/>
      <point x="100" y="560"/>
      <point x="80" y="553"/>
      <point x="80" y="539" type="curve" smooth="yes"/>
      <point x="80" y="34" type="line" smooth="yes"/>
      <point x="80" y="7"/>
      <point x="100" y="-10"/>
    </contour>
  </outline>
</glyph>
<glyph name="u1050E" format="2">
  <advance width="290"/>
  <unicode hex="1050E"/>
  <outline>
    <contour>
      <point x="145" y="-10" type="curve" smooth="yes"/>
      <point x="167" y="-10"/>
      <point x="190" y="-1"/>
      <point x="190" y="16" type="curve" smooth="yes"/>
      <point x="190" y="547" type="line" smooth="yes"/>
      <point x="190" y="562"/>
      <point x="168" y="570"/>
      <point x="146" y="570" type="curve" smooth="yes"/>
      <point x="123" y="570"/>
      <point x="100" y="562"/>
      <point x="100" y="547" type="curve" smooth="yes"/>
      <point x="100" y="16" type="line" smooth="yes"/>
      <point x="100" y="-1"/>
      <point x="122" y="-10"/>
    </contour>
  </outline>
</glyph>
<glyph name="u1050F" format="2">
  <advance width="547"/>
  <unicode hex="1050F"/>
  <outline>
    <contour>
      <point x="125" y="-10" type="curve" smooth="yes"/>
      <point x="148" y="-10"/>
      <point x="170" y="-1"/>
      <point x="170" y="16" type="curve" smooth="yes"/>
      <point x="170" y="500" type="line"/>
      <point x="489" y="500" type="line" smooth="yes"/>
      <point x="508" y="500"/>
      <point x="517" y="514"/>
      <point x="517" y="529" type="curve" smooth="yes"/>
      <point x="517" y="544"/>
      <point x="507" y="560"/>
      <point x="489" y="560" type="curve" smooth="yes"/>
      <point x="131" y="560" type="line" smooth="yes"/>
      <point x="95" y="560"/>
      <point x="80" y="543"/>
      <point x="80" y="509" type="curve" smooth="yes"/>
      <point x="80" y="16" type="line" smooth="yes"/>
      <point x="80" y="-1"/>
      <point x="103" y="-10"/>
    </contour>
  </outline>
</glyph>
<glyph name="u10510" format="2">
  <advance width="702"/>
  <unicode hex="10510"/>
  <outline>
    <contour>
      <point x="59" y="-10" type="curve" smooth="yes"/>
      <point x="75" y="-10"/>
      <point x="86" y="3"/>
      <point x="98" y="25" type="curve" smooth="yes"/>
      <point x="334" y="474" type="line"/>
      <point x="577" y="19" type="line" smooth="yes"/>
      <point x="588" y="-1"/>
      <point x="600" y="-10"/>
      <point x="619" y="-10" type="curve" smooth="yes"/>
      <point x="643" y="-10"/>
      <point x="666" y="9"/>
      <point x="666" y="29" type="curve" smooth="yes"/>
      <point x="666" y="38"/>
      <point x="663" y="47"/>
      <point x="658" y="57" type="curve" smooth="yes"/>
      <point x="388" y="550" type="line" smooth="yes"/>
      <point x="381" y="563"/>
      <point x="367" y="570"/>
      <point x="353" y="570" type="curve" smooth="yes"/>
      <point x="340" y="570"/>
      <point x="325" y="563"/>
      <point x="318" y="550" type="curve" smooth="yes"/>
      <point x="48" y="52" type="line" smooth="yes"/>
      <point x="40" y="38"/>
      <point x="34" y="26"/>
      <point x="34" y="14" type="curve" smooth="yes"/>
      <point x="34" y="1"/>
      <point x="43" y="-10"/>
    </contour>
  </outline>
</glyph>
<glyph name="u10511" format="2">
  <advance width="702"/>
  <unicode hex="10511"/>
  <outline>
    <contour>
      <point x="354" y="645" type="curve" smooth="yes"/>
      <point x="383" y="645"/>
      <point x="407" y="668"/>
      <point x="407" y="697" type="curve" smooth="yes"/>
      <point x="407" y="726"/>
      <point x="383" y="750"/>
      <point x="354" y="750" type="curve" smooth="yes"/>
      <point x="325" y="750"/>
      <point x="302" y="726"/>
      <point x="302" y="697" type="curve" smooth="yes"/>
      <point x="302" y="668"/>
      <point x="325" y="645"/>
    </contour>
    <component base="u10510"/>
  </outline>
</glyph>
<glyph name="u10512" format="2">
  <advance width="616"/>
  <unicode hex="10512"/>
  <outline>
    <contour>
      <point x="125" y="-10" type="curve" smooth="yes"/>
      <point x="147" y="-10"/>
      <point x="170" y="-1"/>
      <point x="170" y="16" type="curve" smooth="yes"/>
      <point x="170" y="430" type="line"/>
      <point x="446" y="430" type="line"/>
      <point x="446" y="16" type="line" smooth="yes"/>
      <point x="446" y="-1"/>
      <point x="468" y="-10"/>
      <point x="491" y="-10" type="curve" smooth="yes"/>
      <point x="513" y="-10"/>
      <point x="536" y="-1"/>
      <point x="536" y="16" type="curve" smooth="yes"/>
      <point x="536" y="439" type="line" smooth="yes"/>
      <point x="536" y="473"/>
      <point x="528" y="490"/>
      <point x="485" y="490" type="curve" smooth="yes"/>
      <point x="170" y="490" type="line"/>
      <point x="170" y="727" type="line" smooth="yes"/>
      <point x="170" y="742"/>
      <point x="148" y="750"/>
      <point x="126" y="750" type="curve" smooth="yes"/>
      <point x="103" y="750"/>
      <point x="80" y="742"/>
      <point x="80" y="727" type="curve" smooth="yes"/>
      <point x="80" y="16" type="line" smooth="yes"/>
      <point x="80" y="-1"/>
      <point x="102" y="-10"/>
    </contour>
  </outline>
</glyph>
<glyph name="u10513" format="2">
  <advance width="648"/>
  <unicode hex="10513"/>
  <outline>
    <contour>
      <point x="121" y="-10" type="curve" smooth="yes"/>
      <point x="142" y="-10"/>
      <point x="163" y="-3"/>
      <point x="163" y="11" type="curve" smooth="yes"/>
      <point x="163" y="461" type="line"/>
      <point x="472" y="16" type="line" smooth="yes"/>
      <point x="488" y="-6"/>
      <point x="505" y="-10"/>
      <point x="525" y="-10" type="curve" smooth="yes"/>
      <point x="551" y="-10"/>
      <point x="568" y="7"/>
      <point x="568" y="34" type="curve" smooth="yes"/>
      <point x="568" y="549" type="line" smooth="yes"/>
      <point x="568" y="563"/>
      <point x="548" y="570"/>
      <point x="527" y="570" type="curve" smooth="yes"/>
      <point x="506" y="570"/>
      <point x="485" y="563"/>
      <point x="485" y="549" type="curve" smooth="yes"/>
      <point x="485" y="100" type="line"/>
      <point x="176" y="544" type="line" smooth="yes"/>
      <point x="160" y="566"/>
      <point x="146" y="570"/>
      <point x="126" y="570" type="curve" smooth="yes"/>
      <point x="100" y="570"/>
      <point x="80" y="553"/>
      <point x="80" y="526" type="curve" smooth="yes"/>
      <point x="80" y="11" type="line" smooth="yes"/>
      <point x="80" y="-3"/>
      <point x="100" y="-10"/>
    </contour>
  </outline>
</glyph>
<glyph name="u10514" format="2">
  <advance width="572"/>
  <unicode hex="10514"/>
  <outline>
    <contour>
      <point x="447" y="-250" type="curve" smooth="yes"/>
      <point x="469" y="-250"/>
      <point x="492" y="-241"/>
      <point x="492" y="-224" type="curve" smooth="yes"/>
      <point x="492" y="537" type="line" smooth="yes"/>
      <point x="492" y="562"/>
      <point x="470" y="570"/>
      <point x="448" y="570" type="curve" smooth="yes"/>
      <point x="426" y="570"/>
      <point x="412" y="561"/>
      <point x="393" y="541" type="curve" smooth="yes"/>
      <point x="227" y="365" type="line" smooth="yes"/>
      <point x="96" y="226"/>
      <point x="35" y="153"/>
      <point x="35" y="84" type="curve" smooth="yes"/>
      <point x="35" y="22"/>
      <point x="79" y="-14"/>
      <point x="143" y="-14" type="curve" smooth="yes"/>
      <point x="203" y="-14"/>
      <point x="264" y="19"/>
      <point x="323" y="56" type="curve" smooth="yes"/>
      <point x="345" y="70"/>
      <point x="357" y="84"/>
      <point x="357" y="103" type="curve" smooth="yes"/>
      <point x="357" y="123"/>
      <point x="341" y="139"/>
      <point x="316" y="139" type="curve" smooth="yes"/>
      <point x="304" y="139"/>
      <point x="292" y="135"/>
      <point x="279" y="126" type="curve" smooth="yes"/>
      <point x="250" y="105" type="line" smooth="yes"/>
      <point x="228" y="89"/>
      <point x="179" y="56"/>
      <point x="143" y="56" type="curve" smooth="yes"/>
      <point x="118" y="56"/>
      <point x="103" y="71"/>
      <point x="103" y="94" type="curve" smooth="yes"/>
      <point x="103" y="134"/>
      <point x="131" y="182"/>
      <point x="259" y="319" type="curve" smooth="yes"/>
      <point x="402" y="471" type="line"/>
      <point x="402" y="-224" type="line" smooth="yes"/>
      <point x="402" y="-241"/>
      <point x="424" y="-250"/>
    </contour>
  </outline>
</glyph>
<glyph name="u10515" format="2">
  <advance width="547"/>
  <unicode hex="10515"/>
  <outline>
    <contour>
      <point x="422" y="-10" type="curve" smooth="yes"/>
      <point x="444" y="-10"/>
      <point x="467" y="-1"/>
      <point x="467" y="16" type="curve" smooth="yes"/>
      <point x="467" y="509" type="line" smooth="yes"/>
      <point x="467" y="543"/>
      <point x="459" y="560"/>
      <point x="416" y="560" type="curve" smooth="yes"/>
      <point x="61" y="560" type="line" smooth="yes"/>
      <point x="40" y="560"/>
      <point x="30" y="544"/>
      <point x="30" y="529" type="curve" smooth="yes"/>
      <point x="30" y="514"/>
      <point x="39" y="500"/>
      <point x="58" y="500" type="curve" smooth="yes"/>
      <point x="377" y="500" type="line"/>
      <point x="377" y="16" type="line" smooth="yes"/>
      <point x="377" y="-1"/>
      <point x="399" y="-10"/>
    </contour>
  </outline>
</glyph>
<glyph name="u10516" format="2">
  <advance width="609"/>
  <unicode hex="10516"/>
  <outline>
    <contour>
      <point x="307" y="-10" type="curve" smooth="yes"/>
      <point x="452" y="-10"/>
      <point x="549" y="94"/>
      <point x="549" y="276" type="curve" smooth="yes"/>
      <point x="549" y="457"/>
      <point x="462" y="570"/>
      <point x="303" y="570" type="curve" smooth="yes"/>
      <point x="155" y="570"/>
      <point x="60" y="457"/>
      <point x="60" y="276" type="curve" smooth="yes"/>
      <point x="60" y="94"/>
      <point x="150" y="-10"/>
    </contour>
    <contour>
      <point x="305" y="72" type="curve" smooth="yes"/>
      <point x="205" y="72"/>
      <point x="153" y="146"/>
      <point x="153" y="276" type="curve" smooth="yes"/>
      <point x="153" y="406"/>
      <point x="205" y="508"/>
      <point x="306" y="508" type="curve" smooth="yes"/>
      <point x="443" y="508"/>
      <point x="476" y="406"/>
      <point x="476" y="276" type="curve" smooth="yes"/>
      <point x="476" y="146"/>
      <point x="416" y="72"/>
    </contour>
  </outline>
</glyph>
<glyph name="u10517" format="2">
  <advance width="616"/>
  <unicode hex="10517"/>
  <outline>
    <contour>
      <point x="125" y="-10" type="curve" smooth="yes"/>
      <point x="148" y="-10"/>
      <point x="170" y="-1"/>
      <point x="170" y="16" type="curve" smooth="yes"/>
      <point x="170" y="500" type="line"/>
      <point x="446" y="500" type="line"/>
      <point x="446" y="16" type="line" smooth="yes"/>
      <point x="446" y="-1"/>
      <point x="468" y="-10"/>
      <point x="491" y="-10" type="curve" smooth="yes"/>
      <point x="513" y="-10"/>
      <point x="536" y="-1"/>
      <point x="536" y="16" type="curve" smooth="yes"/>
      <point x="536" y="509" type="line" smooth="yes"/>
      <point x="536" y="543"/>
      <point x="528" y="560"/>
      <point x="485" y="560" type="curve" smooth="yes"/>
      <point x="131" y="560" type="line" smooth="yes"/>
      <point x="88" y="560"/>
      <point x="80" y="543"/>
      <point x="80" y="509" type="curve" smooth="yes"/>
      <point x="80" y="16" type="line" smooth="yes"/>
      <point x="80" y="-1"/>
      <point x="103" y="-10"/>
    </contour>
  </outline>
</glyph>
<glyph name="u10518" format="2">
  <advance width="634"/>
  <unicode hex="10518"/>
  <outline>
    <contour>
      <point x="152" y="163" type="line"/>
      <point x="469" y="476" type="line" smooth="yes"/>
      <point x="512" y="518"/>
      <point x="522" y="531"/>
      <point x="522" y="545" type="curve" smooth="yes"/>
      <point x="522" y="558"/>
      <point x="514" y="570"/>
      <point x="497" y="570" type="curve" smooth="yes"/>
      <point x="479" y="570"/>
      <point x="463" y="557"/>
      <point x="422" y="515" type="curve" smooth="yes"/>
      <point x="115" y="202" type="line"/>
    </contour>
    <contour>
      <point x="125" y="-10" type="curve" smooth="yes"/>
      <point x="147" y="-10"/>
      <point x="170" y="-1"/>
      <point x="170" y="16" type="curve" smooth="yes"/>
      <point x="170" y="547" type="line" smooth="yes"/>
      <point x="170" y="562"/>
      <point x="148" y="570"/>
      <point x="126" y="570" type="curve" smooth="yes"/>
      <point x="103" y="570"/>
      <point x="80" y="562"/>
      <point x="80" y="547" type="curve" smooth="yes"/>
      <point x="80" y="16" type="line" smooth="yes"/>
      <point x="80" y="-1"/>
      <point x="102" y="-10"/>
    </contour>
    <contour>
      <point x="563" y="-10" type="curve" smooth="yes"/>
      <point x="580" y="-10"/>
      <point x="599" y="5"/>
      <point x="599" y="25" type="curve" smooth="yes"/>
      <point x="599" y="41"/>
      <point x="589" y="52"/>
      <point x="566" y="71" type="curve" smooth="yes"/>
      <point x="253" y="327" type="line"/>
      <point x="202" y="268" type="line"/>
      <point x="511" y="13" type="line" smooth="yes"/>
      <point x="532" y="-4"/>
      <point x="545" y="-10"/>
    </contour>
  </outline>
</glyph>
<glyph name="u10519" format="2">
  <advance width="616"/>
  <unicode hex="10519"/>
  <outline>
    <contour>
      <point x="490" y="-250" type="curve" smooth="yes"/>
      <point x="513" y="-250"/>
      <point x="536" y="-242"/>
      <point x="536" y="-227" type="curve" smooth="yes"/>
      <point x="536" y="724" type="line" smooth="yes"/>
      <point x="536" y="741"/>
      <point x="514" y="750"/>
      <point x="491" y="750" type="curve" smooth="yes"/>
      <point x="469" y="750"/>
      <point x="446" y="741"/>
      <point x="446" y="724" type="curve" smooth="yes"/>
      <point x="446" y="60" type="line"/>
      <point x="170" y="60" type="line"/>
      <point x="170" y="364" type="line" smooth="yes"/>
      <point x="170" y="381"/>
      <point x="148" y="390"/>
      <point x="125" y="390" type="curve" smooth="yes"/>
      <point x="103" y="390"/>
      <point x="80" y="381"/>
      <point x="80" y="364" type="curve" smooth="yes"/>
      <point x="80" y="51" type="line" smooth="yes"/>
      <point x="80" y="17"/>
      <point x="88" y="0"/>
      <point x="131" y="0" type="curve"/>
      <point x="446" y="0" type="line"/>
      <point x="446" y="-227" type="line" smooth="yes"/>
      <point x="446" y="-242"/>
      <point x="468" y="-250"/>
    </contour>
  </outline>
</glyph>
<glyph name="u1051B" format="2">
  <advance width="550"/>
  <unicode hex="1051B"/>
  <outline>
    <contour>
      <point x="330" y="0" type="curve" smooth="yes"/>
      <point x="456" y="0" type="line" smooth="yes"/>
      <point x="476" y="0"/>
      <point x="484" y="22"/>
      <point x="484" y="40" type="curve" smooth="yes"/>
      <point x="484" y="62"/>
      <point x="473" y="80"/>
      <point x="456" y="80" type="curve" smooth="yes"/>
      <point x="330" y="80" type="line" smooth="yes"/>
      <point x="206" y="80"/>
      <point x="153" y="161"/>
      <point x="153" y="279" type="curve" smooth="yes"/>
      <point x="153" y="442"/>
      <point x="204" y="505"/>
      <point x="330" y="505" type="curve" smooth="yes"/>
      <point x="486" y="505" type="line" smooth="yes"/>
      <point x="504" y="505"/>
      <point x="515" y="515"/>
      <point x="515" y="533" type="curve" smooth="yes"/>
      <point x="515" y="552"/>
      <point x="503" y="560"/>
      <point x="485" y="560" type="curve" smooth="yes"/>
      <point x="320" y="560" type="line" smooth="yes"/>
      <point x="153" y="560"/>
      <point x="60" y="452"/>
      <point x="60" y="279" type="curve" smooth="yes"/>
      <point x="60" y="114"/>
      <point x="148" y="0"/>
    </contour>
  </outline>
</glyph>
<glyph name="u1051C" format="2">
  <advance width="616"/>
  <unicode hex="1051C"/>
  <outline>
    <contour>
      <point x="125" y="-10" type="curve" smooth="yes"/>
      <point x="148" y="-10"/>
      <point x="170" y="-1"/>
      <point x="170" y="16" type="curve" smooth="yes"/>
      <point x="170" y="257" type="line"/>
      <point x="446" y="257" type="line"/>
      <point x="446" y="16" type="line" smooth="yes"/>
      <point x="446" y="-1"/>
      <point x="468" y="-10"/>
      <point x="491" y="-10" type="curve" smooth="yes"/>
      <point x="513" y="-10"/>
      <point x="536" y="-1"/>
      <point x="536" y="16" type="curve" smooth="yes"/>
      <point x="536" y="509" type="line" smooth="yes"/>
      <point x="536" y="543"/>
      <point x="528" y="560"/>
      <point x="485" y="560" type="curve" smooth="yes"/>
      <point x="131" y="560" type="line" smooth="yes"/>
      <point x="93" y="560"/>
      <point x="80" y="546"/>
      <point x="80" y="509" type="curve" smooth="yes"/>
      <point x="80" y="16" type="line" smooth="yes"/>
      <point x="80" y="-1"/>
      <point x="103" y="-10"/>
    </contour>
    <contour>
      <point x="170" y="317" type="line"/>
      <point x="170" y="500" type="line"/>
      <point x="446" y="500" type="line"/>
      <point x="446" y="317" type="line"/>
    </contour>
  </outline>
</glyph>
<glyph name="u1051D" format="2">
  <advance width="674"/>
  <unicode hex="1051D"/>
  <outline>
    <contour>
      <point x="348" y="-10" type="curve" smooth="yes"/>
      <point x="361" y="-10"/>
      <point x="376" y="-4"/>
      <point x="383" y="10" type="curve" smooth="yes"/>
      <point x="629" y="515" type="line" smooth="yes"/>
      <point x="635" y="528"/>
      <point x="639" y="539"/>
      <point x="639" y="549" type="curve" smooth="yes"/>
      <point x="639" y="563"/>
      <point x="627" y="570"/>
      <point x="613" y="570" type="curve" smooth="yes"/>
      <point x="601" y="570"/>
      <point x="594" y="560"/>
      <point x="583" y="537" type="curve" smooth="yes"/>
      <point x="367" y="86" type="line"/>
      <point x="124" y="541" type="line" smooth="yes"/>
      <point x="112" y="563"/>
      <point x="99" y="570"/>
      <point x="80" y="570" type="curve" smooth="yes"/>
      <point x="53" y="570"/>
      <point x="35" y="553"/>
      <point x="35" y="531" type="curve" smooth="yes"/>
      <point x="35" y="519"/>
      <point x="38" y="513"/>
      <point x="43" y="503" type="curve" smooth="yes"/>
      <point x="313" y="10" type="line" smooth="yes"/>
      <point x="320" y="-3"/>
      <point x="334" y="-10"/>
    </contour>
  </outline>
</glyph>
<glyph name="u1051E" format="2">
  <advance width="555"/>
  <unicode hex="1051E"/>
  <outline>
    <contour>
      <point x="278" y="-10" type="curve" smooth="yes"/>
      <point x="424" y="-10"/>
      <point x="495" y="159"/>
      <point x="495" y="368" type="curve" smooth="yes"/>
      <point x="495" y="577"/>
      <point x="407" y="750"/>
      <point x="278" y="750" type="curve" smooth="yes"/>
      <point x="133" y="750"/>
      <point x="60" y="578"/>
      <point x="60" y="368" type="curve" smooth="yes"/>
      <point x="60" y="159"/>
      <point x="123" y="-10"/>
    </contour>
    <contour>
      <point x="278" y="72" type="curve" smooth="yes"/>
      <point x="181" y="72"/>
      <point x="152" y="190"/>
      <point x="152" y="368" type="curve" smooth="yes"/>
      <point x="152" y="401" type="line"/>
      <point x="138" y="407" type="line"/>
      <point x="164" y="366"/>
      <point x="201" y="350"/>
      <point x="276" y="350" type="curve" smooth="yes"/>
      <point x="424" y="350" type="line"/>
      <point x="421" y="183"/>
      <point x="372" y="72"/>
    </contour>
    <contour>
      <point x="276" y="410" type="line" smooth="yes"/>
      <point x="199" y="410"/>
      <point x="163" y="431"/>
      <point x="154" y="451" type="curve"/>
      <point x="164" y="588"/>
      <point x="199" y="688"/>
      <point x="280" y="688" type="curve" smooth="yes"/>
      <point x="370" y="688"/>
      <point x="416" y="567"/>
      <point x="423" y="410" type="curve"/>
    </contour>
  </outline>
</glyph>
<glyph name="u1051F" format="2">
  <advance width="640"/>
  <unicode hex="1051F"/>
  <outline>
    <contour>
      <point x="312" y="-20" type="curve" smooth="yes"/>
      <point x="449" y="-20"/>
      <point x="518" y="57"/>
      <point x="518" y="154" type="curve" smooth="yes"/>
      <point x="518" y="232"/>
      <point x="457" y="311"/>
      <point x="379" y="371" type="curve"/>
      <point x="556" y="481" type="line" smooth="yes"/>
      <point x="591" y="503"/>
      <point x="605" y="520"/>
      <point x="605" y="535" type="curve" smooth="yes"/>
      <point x="605" y="548"/>
      <point x="596" y="560"/>
      <point x="578" y="560" type="curve" smooth="yes"/>
      <point x="558" y="560"/>
      <point x="526" y="539"/>
      <point x="487" y="513" type="curve" smooth="yes"/>
      <point x="330" y="410" type="line"/>
      <point x="139" y="543" type="line" smooth="yes"/>
      <point x="111" y="563"/>
      <point x="96" y="570"/>
      <point x="76" y="570" type="curve" smooth="yes"/>
      <point x="56" y="570"/>
      <point x="35" y="553"/>
      <point x="35" y="528" type="curve" smooth="yes"/>
      <point x="35" y="508"/>
      <point x="45" y="497"/>
      <point x="70" y="480" type="curve" smooth="yes"/>
      <point x="202" y="392"/>
      <point x="229" y="373"/>
      <point x="254" y="355" type="curve"/>
      <point x="160" y="281"/>
      <point x="115" y="215"/>
      <point x="115" y="142" type="curve" smooth="yes"/>
      <point x="115" y="59"/>
      <point x="182" y="-20"/>
    </contour>
    <contour>
      <point x="312" y="62" type="curve" smooth="yes"/>
      <point x="221" y="62"/>
      <point x="188" y="103"/>
      <point x="188" y="156" type="curve" smooth="yes"/>
      <point x="188" y="226"/>
      <point x="242" y="278"/>
      <point x="321" y="333" type="curve"/>
      <point x="282" y="333" type="line"/>
      <point x="364" y="270"/>
      <point x="425" y="203"/>
      <point x="425" y="152" type="curve" smooth="yes"/>
      <point x="425" y="102"/>
      <point x="397" y="62"/>
    </contour>
  </outline>
</glyph>
<glyph name="u10520" format="2">
  <advance width="616"/>
  <unicode hex="10520"/>
  <outline>
    <contour>
      <point x="124" y="-250" type="curve" smooth="yes"/>
      <point x="147" y="-250"/>
      <point x="170" y="-242"/>
      <point x="170" y="-227" type="curve" smooth="yes"/>
      <point x="170" y="0" type="line"/>
      <point x="485" y="0" type="line" smooth="yes"/>
      <point x="521" y="0"/>
      <point x="536" y="14"/>
      <point x="536" y="51" type="curve" smooth="yes"/>
      <point x="536" y="544" type="line" smooth="yes"/>
      <point x="536" y="561"/>
      <point x="513" y="570"/>
      <point x="491" y="570" type="curve" smooth="yes"/>
      <point x="468" y="570"/>
      <point x="446" y="561"/>
      <point x="446" y="544" type="curve" smooth="yes"/>
      <point x="446" y="60" type="line"/>
      <point x="170" y="60" type="line"/>
      <point x="170" y="544" type="line" smooth="yes"/>
      <point x="170" y="561"/>
      <point x="148" y="570"/>
      <point x="125" y="570" type="curve" smooth="yes"/>
      <point x="103" y="570"/>
      <point x="80" y="561"/>
      <point x="80" y="544" type="curve" smooth="yes"/>
      <point x="80" y="-227" type="line" smooth="yes"/>
      <point x="80" y="-242"/>
      <point x="102" y="-250"/>
    </contour>
  </outline>
</glyph>
<glyph name="u10521" format="2">
  <advance width="586"/>
  <unicode hex="10521"/>
  <outline>
    <contour>
      <point x="342" y="-267" type="curve" smooth="yes"/>
      <point x="356" y="-267"/>
      <point x="370" y="-259"/>
      <point x="390" y="-245" type="curve" smooth="yes"/>
      <point x="488" y="-177"/>
      <point x="541" y="-79"/>
      <point x="541" y="46" type="curve" smooth="yes"/>
      <point x="541" y="203"/>
      <point x="440" y="300"/>
      <point x="312" y="300" type="curve" smooth="yes"/>
      <point x="254" y="300"/>
      <point x="186" y="271"/>
      <point x="148" y="231" type="curve"/>
      <point x="170" y="228" type="line"/>
      <point x="170" y="547" type="line" smooth="yes"/>
      <point x="170" y="562"/>
      <point x="148" y="570"/>
      <point x="126" y="570" type="curve" smooth="yes"/>
      <point x="103" y="570"/>
      <point x="80" y="562"/>
      <point x="80" y="547" type="curve" smooth="yes"/>
      <point x="80" y="16" type="line" smooth="yes"/>
      <point x="80" y="-1"/>
      <point x="102" y="-10"/>
      <point x="125" y="-10" type="curve" smooth="yes"/>
      <point x="147" y="-10"/>
      <point x="170" y="-1"/>
      <point x="170" y="16" type="curve" smooth="yes"/>
      <point x="170" y="181" type="line"/>
      <point x="205" y="218"/>
      <point x="260" y="238"/>
      <point x="301" y="238" type="curve" smooth="yes"/>
      <point x="397" y="238"/>
      <point x="463" y="166"/>
      <point x="463" y="60" type="curve" smooth="yes"/>
      <point x="463" y="-86"/>
      <point x="390" y="-150"/>
      <point x="312" y="-195" type="curve" smooth="yes"/>
      <point x="297" y="-203"/>
      <point x="291" y="-212"/>
      <point x="291" y="-220" type="curve" smooth="yes"/>
      <point x="291" y="-233"/>
      <point x="310" y="-267"/>
    </contour>
  </outline>
</glyph>
<glyph name="u10522" format="2">
  <advance width="586"/>
  <unicode hex="10522"/>
  <outline>
    <contour>
      <point x="307" y="-20" type="curve" smooth="yes"/>
      <point x="460" y="-20"/>
      <point x="526" y="58"/>
      <point x="526" y="152" type="curve" smooth="yes"/>
      <point x="526" y="226"/>
      <point x="476" y="300"/>
      <point x="390" y="372" type="curve"/>
      <point x="459" y="420"/>
      <point x="518" y="476"/>
      <point x="518" y="590" type="curve" smooth="yes"/>
      <point x="518" y="723"/>
      <point x="396" y="820"/>
      <point x="274" y="820" type="curve" smooth="yes"/>
      <point x="257" y="820"/>
      <point x="248" y="808"/>
      <point x="248" y="790" type="curve" smooth="yes"/>
      <point x="248" y="772"/>
      <point x="258" y="761"/>
      <point x="274" y="758" type="curve" smooth="yes"/>
      <point x="372" y="742"/>
      <point x="445" y="686"/>
      <point x="445" y="590" type="curve" smooth="yes"/>
      <point x="445" y="484"/>
      <point x="390" y="438"/>
      <point x="326" y="396" type="curve"/>
      <point x="358" y="399" type="line"/>
      <point x="328" y="420"/>
      <point x="295" y="442"/>
      <point x="259" y="465" type="curve" smooth="yes"/>
      <point x="143" y="538" type="line" smooth="yes"/>
      <point x="114" y="556"/>
      <point x="91" y="570"/>
      <point x="71" y="570" type="curve" smooth="yes"/>
      <point x="51" y="570"/>
      <point x="30" y="544"/>
      <point x="30" y="526" type="curve" smooth="yes"/>
      <point x="30" y="507"/>
      <point x="39" y="496"/>
      <point x="65" y="480" type="curve" smooth="yes"/>
      <point x="188" y="404" type="line" smooth="yes"/>
      <point x="218" y="386"/>
      <point x="247" y="366"/>
      <point x="273" y="348" type="curve"/>
      <point x="275" y="363" type="line"/>
      <point x="184" y="314"/>
      <point x="90" y="254"/>
      <point x="90" y="148" type="curve" smooth="yes"/>
      <point x="90" y="53"/>
      <point x="154" y="-20"/>
    </contour>
    <contour>
      <point x="308" y="62" type="curve" smooth="yes"/>
      <point x="208" y="62"/>
      <point x="163" y="99"/>
      <point x="163" y="155" type="curve" smooth="yes"/>
      <point x="163" y="234"/>
      <point x="244" y="282"/>
      <point x="327" y="331" type="curve"/>
      <point x="288" y="336" type="line"/>
      <point x="374" y="271"/>
      <point x="433" y="205"/>
      <point x="433" y="152" type="curve" smooth="yes"/>
      <point x="433" y="107"/>
      <point x="403" y="62"/>
    </contour>
  </outline>
</glyph>
<glyph name="u10523" format="2">
  <advance width="592"/>
  <unicode hex="10523"/>
  <outline>
    <contour>
      <point x="282" y="-250" type="curve" smooth="yes"/>
      <point x="421" y="-250"/>
      <point x="515" y="-152"/>
      <point x="515" y="1" type="curve" smooth="yes"/>
      <point x="515" y="166"/>
      <point x="414" y="215"/>
      <point x="290" y="259" type="curve" smooth="yes"/>
      <point x="223" y="283"/>
      <point x="182" y="306"/>
      <point x="182" y="345" type="curve" smooth="yes"/>
      <point x="182" y="436"/>
      <point x="322" y="512"/>
      <point x="395" y="512" type="curve" smooth="yes"/>
      <point x="447" y="512"/>
      <point x="463" y="485"/>
      <point x="470" y="457" type="curve" smooth="yes"/>
      <point x="475" y="438"/>
      <point x="481" y="431"/>
      <point x="497" y="431" type="curve" smooth="yes"/>
      <point x="517" y="431"/>
      <point x="532" y="445"/>
      <point x="532" y="461" type="curve" smooth="yes"/>
      <point x="532" y="515"/>
      <point x="498" y="573"/>
      <point x="393" y="573" type="curve" smooth="yes"/>
      <point x="275" y="573"/>
      <point x="89" y="465"/>
      <point x="89" y="337" type="curve" smooth="yes"/>
      <point x="89" y="253"/>
      <point x="146" y="221"/>
      <point x="256" y="177" type="curve" smooth="yes"/>
      <point x="339" y="144"/>
      <point x="422" y="109"/>
      <point x="422" y="10" type="curve" smooth="yes"/>
      <point x="422" y="-107"/>
      <point x="374" y="-188"/>
      <point x="279" y="-188" type="curve" smooth="yes"/>
      <point x="162" y="-188"/>
      <point x="127" y="-117"/>
      <point x="127" y="-1" type="curve" smooth="yes"/>
      <point x="127" y="23"/>
      <point x="112" y="36"/>
      <point x="94" y="36" type="curve" smooth="yes"/>
      <point x="78" y="36"/>
      <point x="60" y="25"/>
      <point x="60" y="4" type="curve" smooth="yes"/>
      <point x="60" y="-167"/>
      <point x="127" y="-250"/>
    </contour>
  </outline>
</glyph>
<glyph name="u10524" format="2">
  <advance width="566"/>
  <unicode hex="10524"/>
  <outline>
    <contour>
      <point x="265" y="-250" type="curve" smooth="yes"/>
      <point x="421" y="-250"/>
      <point x="486" y="-154"/>
      <point x="486" y="-1" type="curve" smooth="yes"/>
      <point x="486" y="483" type="line" smooth="yes"/>
      <point x="486" y="507"/>
      <point x="463" y="520"/>
      <point x="442" y="520" type="curve" smooth="yes"/>
      <point x="420" y="520"/>
      <point x="396" y="509"/>
      <point x="396" y="481" type="curve" smooth="yes"/>
      <point x="396" y="372"/>
      <point x="373" y="297"/>
      <point x="266" y="297" type="curve" smooth="yes"/>
      <point x="152" y="297"/>
      <point x="130" y="378"/>
      <point x="130" y="481" type="curve" smooth="yes"/>
      <point x="130" y="507"/>
      <point x="112" y="520"/>
      <point x="94" y="520" type="curve" smooth="yes"/>
      <point x="77" y="520"/>
      <point x="60" y="507"/>
      <point x="60" y="483" type="curve" smooth="yes"/>
      <point x="60" y="312"/>
      <point x="131" y="235"/>
      <point x="253" y="235" type="curve" smooth="yes"/>
      <point x="333" y="235"/>
      <point x="387" y="267"/>
      <point x="409" y="306" type="curve"/>
      <point x="396" y="306" type="line"/>
      <point x="396" y="22" type="line" smooth="yes"/>
      <point x="396" y="-102"/>
      <point x="378" y="-188"/>
      <point x="262" y="-188" type="curve" smooth="yes"/>
      <point x="172" y="-188"/>
      <point x="137" y="-117"/>
      <point x="137" y="-1" type="curve" smooth="yes"/>
      <point x="137" y="23"/>
      <point x="124" y="36"/>
      <point x="104" y="36" type="curve" smooth="yes"/>
      <point x="85" y="36"/>
      <point x="70" y="25"/>
      <point x="70" y="4" type="curve" smooth="yes"/>
      <point x="70" y="-167"/>
      <point x="136" y="-250"/>
    </contour>
  </outline>
</glyph>
<glyph name="u10525" format="2">
  <advance width="546"/>
  <unicode hex="10525"/>
  <outline>
    <contour>
      <point x="125" y="-10" type="curve" smooth="yes"/>
      <point x="148" y="-10"/>
      <point x="170" y="-1"/>
      <point x="170" y="16" type="curve" smooth="yes"/>
      <point x="170" y="280" type="line"/>
      <point x="427" y="280" type="line" smooth="yes"/>
      <point x="446" y="280"/>
      <point x="458" y="296"/>
      <point x="458" y="312" type="curve" smooth="yes"/>
      <point x="458" y="326"/>
      <point x="448" y="340"/>
      <point x="429" y="340" type="curve" smooth="yes"/>
      <point x="170" y="340" type="line"/>
      <point x="170" y="500" type="line"/>
      <point x="489" y="500" type="line" smooth="yes"/>
      <point x="509" y="500"/>
      <point x="516" y="514"/>
      <point x="516" y="530" type="curve" smooth="yes"/>
      <point x="516" y="546"/>
      <point x="505" y="560"/>
      <point x="489" y="560" type="curve" smooth="yes"/>
      <point x="131" y="560" type="line" smooth="yes"/>
      <point x="88" y="560"/>
      <point x="80" y="543"/>
      <point x="80" y="509" type="curve" smooth="yes"/>
      <point x="80" y="16" type="line" smooth="yes"/>
      <point x="80" y="-1"/>
      <point x="103" y="-10"/>
    </contour>
  </outline>
</glyph>
<glyph name="u10526" format="2">
  <advance width="547"/>
  <unicode hex="10526"/>
  <outline>
    <contour>
      <point x="131" y="0" type="curve"/>
      <point x="489" y="0" type="line" smooth="yes"/>
      <point x="506" y="0"/>
      <point x="517" y="20"/>
      <point x="517" y="42" type="curve" smooth="yes"/>
      <point x="517" y="60"/>
      <point x="509" y="80"/>
      <point x="489" y="80" type="curve" smooth="yes"/>
      <point x="170" y="80" type="line"/>
      <point x="170" y="544" type="line" smooth="yes"/>
      <point x="170" y="561"/>
      <point x="148" y="570"/>
      <point x="125" y="570" type="curve" smooth="yes"/>
      <point x="103" y="570"/>
      <point x="80" y="561"/>
      <point x="80" y="544" type="curve" smooth="yes"/>
      <point x="80" y="51" type="line" smooth="yes"/>
      <point x="80" y="17"/>
      <point x="88" y="0"/>
    </contour>
  </outline>
</glyph>
<glyph name="u10527" format="2">
  <advance width="588"/>
  <unicode hex="10527"/>
  <outline>
    <contour>
      <point x="502" y="-10" type="curve" smooth="yes"/>
      <point x="526" y="-10"/>
      <point x="553" y="10"/>
      <point x="553" y="35" type="curve" smooth="yes"/>
      <point x="553" y="45"/>
      <point x="548" y="54"/>
      <point x="539" y="65" type="curve" smooth="yes"/>
      <point x="342" y="293" type="line"/>
      <point x="510" y="499" type="line" smooth="yes"/>
      <point x="519" y="509"/>
      <point x="528" y="522"/>
      <point x="528" y="533" type="curve" smooth="yes"/>
      <point x="528" y="549"/>
      <point x="516" y="559"/>
      <point x="499" y="559" type="curve" smooth="yes"/>
      <point x="489" y="559"/>
      <point x="482" y="554"/>
      <point x="476" y="547" type="curve" smooth="yes"/>
      <point x="304" y="336" type="line"/>
      <point x="118" y="552" type="line" smooth="yes"/>
      <point x="106" y="566"/>
      <point x="97" y="570"/>
      <point x="83" y="570" type="curve" smooth="yes"/>
      <point x="62" y="570"/>
      <point x="35" y="550"/>
      <point x="35" y="526" type="curve" smooth="yes"/>
      <point x="35" y="515"/>
      <point x="40" y="506"/>
      <point x="49" y="495" type="curve" smooth="yes"/>
      <point x="247" y="266" type="line"/>
      <point x="83" y="67" type="line" smooth="yes"/>
      <point x="63" y="42"/>
      <point x="55" y="31"/>
      <point x="55" y="18" type="curve" smooth="yes"/>
      <point x="55" y="5"/>
      <point x="66" y="-8"/>
      <point x="80" y="-8" type="curve" smooth="yes"/>
      <point x="92" y="-8"/>
      <point x="101" y="-2"/>
      <point x="108" y="6" type="curve" smooth="yes"/>
      <point x="284" y="222" type="line"/>
      <point x="475" y="2" type="line" smooth="yes"/>
      <point x="481" y="-5"/>
      <point x="494" y="-10"/>
    </contour>
  </outline>
</glyph>
<glyph name="overlinecmb.w1" format="2">
  <outline>
    <contour>
      <point x="-304" y="771" type="line"/>
      <point x="303" y="771" type="line"/>
      <point x="303" y="841" type="line"/>
      <point x="-304" y="841" type="line"/>
    </contour>
  </outline>
</glyph>
<glyph name="overlinecmb.w2" format="2">
  <outline>
    <contour>
      <point x="-328" y="771" type="line"/>
      <point x="328" y="771" type="line"/>
      <point x="328" y="841" type="line"/>
      <point x="-328" y="841" type="line"/>
    </contour>
  </outline>
</glyph>
<glyph name="overlinecmb.w3" format="2">
  <outline>
    <contour>
      <point x="-392" y="771" type="line"/>
      <point x="392" y="771" type="line"/>
      <point x="392" y="841" type="line"/>
      <point x="-392" y="841" type="line"/>
    </contour>
  </outline>
</glyph>
<glyph name="overlinecmb.w4" format="2">
  <outline>
    <contour>
      <point x="-456" y="771" type="line"/>
      <point x="455" y="771" type="line"/>
      <point x="455" y="841" type="line"/>
      <point x="-456" y="841" type="line"/>
    </contour>
  </outline>
</glyph>
